<?xml version="1.0" standalone="no"?>
<!DOCTYPE svg PUBLIC "-//W3C//DTD SVG 20010904//EN"
 "http://www.w3.org/TR/2001/REC-SVG-20010904/DTD/svg10.dtd">
<svg version="1.0" xmlns="http://www.w3.org/2000/svg"
 width="3557.000000pt" height="3000.000000pt" viewBox="0 0 3557.000000 3000.000000"
 preserveAspectRatio="xMidYMid meet">

<g transform="translate(0.000000,3000.000000) scale(0.100000,-0.100000)"
fill="#000000" stroke="none">
<path d="M12300 23151 c752 -815 1359 -1682 1904 -2718 192 -365 434 -887 546
-1178 7 -20 3 -20 -309 -21 -414 -1 -686 -30 -989 -104 -269 -66 -551 -188
-726 -314 -309 -223 -498 -536 -551 -916 -38 -279 -5 -654 86 -969 148 -508
569 -1352 1017 -2036 632 -966 1258 -1596 1769 -1778 266 -96 562 -66 785 79
469 303 656 1185 507 2384 -100 806 -322 1670 -663 2579 -26 68 -45 126 -43
128 11 10 596 -117 932 -202 844 -215 1634 -488 2217 -768 85 -41 158 -78 161
-83 3 -5 -177 -9 -431 -9 -303 0 -469 -4 -542 -13 -429 -54 -696 -164 -887
-366 -213 -225 -244 -486 -93 -801 129 -269 428 -596 858 -939 513 -408 1167
-809 2697 -1651 248 -136 473 -260 500 -275 848 -467 1360 -756 1865 -1053
963 -567 1731 -1084 2245 -1512 493 -410 720 -669 823 -938 34 -88 36 -98 36
-217 0 -104 -3 -135 -21 -182 -36 -98 -93 -179 -192 -278 -78 -76 -87 -88 -47
-60 139 98 253 239 297 367 21 59 24 86 24 203 -1 126 -3 142 -34 230 -82 240
-235 465 -538 793 -505 547 -1412 1281 -2598 2103 -55 38 -134 93 -175 121
-41 29 -615 414 -1275 855 -1249 834 -1447 968 -1780 1202 -110 77 -335 235
-500 351 -566 397 -901 653 -1143 874 -126 115 -265 268 -259 286 4 11 62 29
157 50 156 33 293 37 925 30 634 -7 765 -3 950 31 253 47 407 139 480 287 80
165 68 356 -35 528 -48 80 -190 233 -299 321 -313 252 -860 530 -1548 789
-986 369 -2359 737 -3063 819 l-105 12 -132 257 c-766 1484 -1713 2741 -2814
3731 l-94 85 105 -114z m2572 -4747 c97 -9 182 -20 188 -24 6 -4 48 -124 92
-266 317 -1028 495 -2195 459 -3010 -30 -653 -97 -1056 -197 -1172 -32 -38
-40 -42 -83 -42 -238 0 -752 562 -1388 1515 -447 672 -717 1179 -863 1624 -68
205 -92 328 -98 497 -6 180 11 273 72 399 97 197 280 334 557 414 147 43 263
61 539 85 102 9 557 -4 722 -20z"/>
<path d="M12707 11360 c-72 -13 -150 -55 -217 -117 -204 -188 -174 -527 59
-675 121 -77 298 -90 423 -31 35 17 74 40 88 51 l25 21 -60 60 -60 61 -55 -28
c-80 -39 -174 -38 -248 3 -150 82 -178 288 -56 409 94 94 259 101 351 14 25
-23 30 -21 107 50 55 51 55 51 -36 112 -91 61 -216 88 -321 70z"/>
<path d="M14282 11279 c-110 -21 -242 -130 -298 -246 -26 -53 -29 -67 -29
-173 0 -109 2 -119 32 -183 85 -180 269 -279 465 -251 149 22 256 101 324 240
32 64 38 88 42 157 7 142 -41 262 -141 353 -102 91 -253 131 -395 103z m177
-175 c105 -31 184 -140 184 -254 0 -156 -158 -282 -312 -249 -106 22 -180 100
-202 211 -24 119 53 247 171 288 68 24 92 24 159 4z"/>
<path d="M15787 11148 c-13 -167 -40 -778 -36 -783 3 -2 41 -7 85 -11 l81 -7
6 114 c4 63 7 137 7 166 0 28 4 54 9 57 5 3 57 -71 117 -164 74 -117 111 -167
119 -160 6 5 65 76 130 159 66 82 121 149 122 147 2 -1 -1 -77 -6 -167 -5 -90
-7 -166 -6 -167 5 -5 165 -16 166 -11 2 8 47 874 45 876 -1 1 -100 -122 -220
-273 -119 -150 -220 -274 -224 -274 -4 0 -92 131 -196 290 -103 160 -189 290
-191 290 -1 0 -5 -37 -8 -82z"/>
<path d="M17610 11105 c0 -14 -9 -206 -21 -426 -11 -221 -19 -402 -17 -404 2
-1 39 -6 84 -9 l81 -7 7 62 c3 34 6 92 6 129 l0 68 123 4 c137 4 171 16 241
84 58 57 80 113 80 209 1 70 -3 87 -29 134 -37 67 -103 125 -163 145 -28 9
-105 18 -192 21 -80 3 -157 8 -172 10 -24 4 -28 1 -28 -20z m365 -195 c70 -68
63 -165 -16 -206 -29 -15 -184 -20 -192 -6 -2 4 -2 63 1 130 l5 124 83 -4 c79
-3 85 -5 119 -38z"/>
<path d="M19198 10769 c-261 -509 -281 -551 -266 -560 7 -5 48 -9 91 -9 l77 0
32 65 c29 59 35 65 58 61 14 -3 78 -8 144 -12 l118 -7 29 -62 c32 -71 39 -75
143 -75 60 0 68 2 64 18 -7 22 -328 833 -338 851 -5 9 -58 -85 -152 -270z
m162 -209 c16 -40 30 -77 30 -81 0 -10 -110 -12 -134 -3 -12 5 -8 20 27 84 23
43 43 77 44 76 2 -1 16 -35 33 -76z"/>
<path d="M20687 10970 c-11 -50 -39 -832 -31 -840 5 -4 42 -10 82 -12 67 -3
73 -2 77 17 2 11 7 112 10 225 4 113 9 207 12 210 3 3 114 -107 248 -245 220
-227 244 -248 248 -225 7 30 40 840 35 845 -2 1 -38 5 -81 7 -72 3 -78 2 -82
-17 -2 -11 -9 -114 -15 -230 -6 -115 -13 -211 -14 -212 -3 -3 -282 286 -417
431 -64 67 -67 70 -72 46z"/>
<path d="M22333 10888 c3 -7 56 -120 117 -250 l112 -238 -1 -137 c-1 -76 -4
-159 -7 -184 l-6 -46 82 -7 c46 -4 85 -4 88 -2 2 3 9 87 14 186 l9 181 139
230 c77 126 140 234 140 240 0 6 -38 9 -97 7 l-97 -3 -80 -138 -81 -138 -72
145 c-81 161 -68 151 -192 161 -57 4 -72 3 -68 -7z"/>
</g>
</svg>
